HIERARCHY
ROOT ui
{
	 OFFSET 0 0 0
	 CHANNELS 3 XPosition YPosition Z Position
	 EndSite
	 {
	 OFFSET 0 -1 0
	 }
}
ROOT li
{
	 OFFSET 0 0 0
	 CHANNELS 3 XPosition YPosition Z Position
	 EndSite
	 {
	 OFFSET 0 -1 0
	 }
}
ROOT ul
{
	 OFFSET 0 0 0
	 CHANNELS 3 XPosition YPosition Z Position
	 EndSite
	 {
	 OFFSET 0 -1 0
	 }
}
ROOT ll
{
	 OFFSET 0 0 0
	 CHANNELS 3 XPosition YPosition Z Position
	 EndSite
	 {
	 OFFSET 0 -1 0
	 }
}
ROOT tt
{
	 OFFSET 0 0 0
	 CHANNELS 3 XPosition YPosition Z Position
	 EndSite
	 {
	 OFFSET 0 -1 0
	 }
}
ROOT tb
{
	 OFFSET 0 0 0
	 CHANNELS 3 XPosition YPosition Z Position
	 EndSite
	 {
	 OFFSET 0 -1 0
	 }
}
ROOT td
{
	 OFFSET 0 0 0
	 CHANNELS 3 XPosition YPosition Z Position
	 EndSite
	 {
	 OFFSET 0 -1 0
	 }
}
ROOT v
{
	 OFFSET 0 0 0
	 CHANNELS 3 XPosition YPosition Z Position
	 EndSite
	 {
	 OFFSET 0 -1 0
	 }
}
ROOT bn
{
	 OFFSET 0 0 0
	 CHANNELS 3 XPosition YPosition Z Position
	 EndSite
	 {
	 OFFSET 0 -1 0
	 }
}
MOTION
Frames: 10
Frame Time: 0.002
-0.0010767040252685548	-0.0011102659702301025	0		0.45842572021484373	-2.5018994140625	0		-0.972181396484375	0.16661480712890625	0		-0.7850968017578125	-2.51924072265625	0		1.5585592041015626	-0.7486569213867188	0		3.172623291015625	-0.2659911193847656	0		4.58219580078125	-0.1376575927734375	0		5.53621142578125	0.07399176788330078	0		0.05394951629638672	6.0358896484375	0		
-0.011507720947265624	-0.010256452560424805	0		0.4299004516601562	-2.500768798828125	0		-0.9805388793945312	0.16054042053222656	0		-0.8226041870117188	-2.5168056640625	0		1.5961278076171874	-0.7538590698242188	0		3.15503515625	-0.28236392211914063	0		4.59080126953125	-0.1446669921875	0		5.54696875	0.07383746337890625	0		0.01738385581970215	6.03723046875	0		
-0.0107811861038208	-0.009623473167419433	0		0.48224530029296875	-2.508136474609375	0		-0.979795654296875	0.16126826477050782	0		-0.8241595458984375	-2.518055908203125	0		1.5568067626953126	-0.7516463012695312	0		3.15982666015625	-0.2771155395507813	0		4.59636669921875	-0.1525753631591797	0		5.54770361328125	0.07392629241943359	0		0.01870241165161133	6.03786083984375	0		
-0.010086181640625	-0.009016234397888184	0		0.43971875	-2.507774169921875	0		-1.0491668701171875	0.15825422668457031	0		-0.8117889404296875	-2.523601318359375	0		1.5974139404296874	-0.75291162109375	0		3.17725537109375	-0.290087890625	0		4.59704931640625	-0.15235612487792968	0		5.5384072265625	0.07425058746337891	0		-0.029418197631835938	6.0213759765625	0		
-0.0053552379608154295	-0.004514613151550293	0		0.46919363403320313	-2.5077685546875	0		-0.9584574584960938	0.16023112487792968	0		-0.8092733154296875	-2.52100537109375	0		1.5611177978515625	-0.7467621459960937	0		3.16052783203125	-0.2554087371826172	0		4.59082763671875	-0.1449775848388672	0		5.54906884765625	0.07424750518798828	0		0.055098941802978516	6.04440673828125	0		
0.002371114015579224	0.001896705985069275	0		0.44270623779296875	-2.50475	0		-0.963756591796875	0.1649404296875	0		-0.7827147827148437	-2.515901611328125	0		1.6016461181640624	-0.7490555419921875	0		3.18260302734375	-0.2834546813964844	0		4.6024150390625	-0.14590597534179686	0		5.54968896484375	0.07446852111816406	0		0.02195918846130371	6.0395810546875	0		
-0.008242603302001952	-0.007388689994812012	0		0.4592365417480469	-2.5005625	0		-0.977212890625	0.16375325012207032	0		-0.8202315673828126	-2.51364892578125	0		1.5991280517578126	-0.7515637817382812	0		3.176517822265625	-0.26396319580078126	0		4.5940185546875	-0.1434381408691406	0		5.55926171875	0.07455757904052734	0		0.1721129455566406	6.05529931640625	0		
-0.0077182788848876955	-0.006917341232299805	0		0.457623779296875	-2.503068359375	0		-0.9766829833984375	0.1642561798095703	0		-0.7499510498046875	-2.52246044921875	0		1.5937415771484376	-0.7450335083007813	0		3.1628115234375	-0.2753314208984375	0		4.5993876953125	-0.1512090301513672	0		5.55079052734375	0.07501595306396484	0		0.0073208208084106444	6.029859375	0		
-0.007241055965423584	-0.006482232093811035	0		0.4678968811035156	-2.5108291015625	0		-1.041378173828125	0.15593185424804687	0		-0.8464721069335938	-2.518191650390625	0		1.56318994140625	-0.7450507202148438	0		3.163283203125	-0.274962890625	0		4.6039736328125	-0.14494668579101563	0		5.55126953125	0.0753343734741211	0		0.058234668731689455	6.04635400390625	0		
0.00437569808959961	0.0037101500034332274	0		0.4563226013183594	-2.509208740234375	0		-0.9517359619140625	0.16667176818847657	0		-0.8050370483398438	-2.5165517578125	0		1.608455322265625	-0.7535093383789062	0		3.193518798828125	-0.2851566162109375	0		4.593423828125	-0.1433884735107422	0		5.541703125	0.07586405944824219	0		0.02850952339172363	6.035318359375	0		
